<svg width="20" height="20" viewBox="0 0 20 20" fill="none" xmlns="http://www.w3.org/2000/svg">
<g clip-path="url(#clip0_16_16)">
<path d="M13.3334 7.91667V1.25C13.3334 0.559167 13.8934 0 14.5834 0C15.2734 0 15.8334 0.559167 15.8334 1.25V7.91667C15.8334 8.6075 15.2734 9.16667 14.5834 9.16667C13.8934 9.16667 13.3334 8.6075 13.3334 7.91667ZM10.4168 9.16667C11.1068 9.16667 11.6668 8.6075 11.6668 7.91667V1.25C11.6668 0.559167 11.1068 0 10.4168 0C9.72677 0 9.16677 0.559167 9.16677 1.25V7.91667C9.16677 8.6075 9.72593 9.16667 10.4168 9.16667ZM18.7501 1.66667C18.0601 1.66667 17.5001 2.22583 17.5001 2.91667V11.25C17.5001 11.9408 18.0601 12.5 18.7501 12.5C19.4401 12.5 20.0001 11.9408 20.0001 11.25V2.91667C20.0001 2.22583 19.4401 1.66667 18.7501 1.66667ZM13.7734 12.7525L12.6834 12.3167L12.2476 11.2267C12.1526 10.9892 11.9226 10.8333 11.6668 10.8333C11.4109 10.8333 11.1809 10.9892 11.0859 11.2267L10.6526 12.3108L9.5701 12.7208C9.33093 12.8108 9.17093 13.0383 9.16677 13.2933C9.1626 13.5492 9.31343 13.7817 9.54927 13.8808L10.6476 14.3442L11.0859 15.4408C11.1809 15.6783 11.4109 15.8342 11.6668 15.8342C11.9226 15.8342 12.1526 15.6783 12.2476 15.4408L12.6834 14.3508L13.7734 13.915C14.0109 13.82 14.1668 13.59 14.1668 13.3342C14.1668 13.0783 14.0109 12.8475 13.7734 12.7525ZM19.5409 16.4058L18.2693 15.8967L17.7601 14.625C17.6493 14.3483 17.3809 14.1667 17.0826 14.1667C16.7843 14.1667 16.5159 14.3483 16.4051 14.625L15.8993 15.89L14.6368 16.3683C14.3576 16.4733 14.1718 16.7383 14.1659 17.0367C14.1609 17.335 14.3376 17.6067 14.6118 17.7217L15.8934 18.2617L16.4051 19.5417C16.5159 19.8183 16.7843 20 17.0826 20C17.3809 20 17.6493 19.8183 17.7601 19.5417L18.2693 18.2692L19.5409 17.7608C19.8176 17.65 19.9993 17.3817 19.9993 17.0833C19.9993 16.785 19.8176 16.5167 19.5409 16.4058ZM0.318433 5.8725L1.23427 6.25833L1.59927 7.1725C1.67843 7.37 1.8701 7.5 2.0826 7.5C2.2951 7.5 2.48677 7.37 2.56593 7.1725L2.92927 6.26417L3.8376 5.90083C4.0351 5.82167 4.1651 5.63 4.1651 5.4175C4.1651 5.205 4.0351 5.0125 3.8376 4.93417L2.92927 4.57083L2.56593 3.6625C2.48677 3.465 2.2951 3.335 2.0826 3.335C1.8701 3.335 1.6776 3.465 1.59927 3.6625L1.23843 4.56583L0.336766 4.9075C0.1376 4.98083 0.00426644 5.17 9.97727e-05 5.38333C-0.00406689 5.59667 0.1226 5.79 0.318433 5.8725ZM11.2818 17.5H9.45427C8.1901 17.5 6.97093 16.9708 6.1076 16.0483L5.7326 15.6467C5.78093 15.63 5.82927 15.6117 5.87593 15.5925C6.8626 15.1833 7.5001 14.23 7.5001 13.1617V2.91667C7.5001 2.22583 6.94093 1.66667 6.2501 1.66667C5.55927 1.66667 5.0001 2.22583 5.0001 2.91667V13.1617C5.0001 13.1942 5.0001 13.2492 4.91927 13.2825C4.8376 13.315 4.79927 13.2775 4.7801 13.2583C4.7801 13.2583 2.71093 11.1817 2.6451 11.1375C2.06093 10.7383 1.13093 10.6742 0.484266 11.3233C-0.184067 11.99 -0.0907336 12.9383 0.345933 13.5308C0.374266 13.5692 4.28093 17.7558 4.28093 17.7558C5.6151 19.1817 7.5001 20 9.45343 20H11.2809C11.9709 20 12.5309 19.4408 12.5309 18.75C12.5309 18.0592 11.9709 17.5 11.2809 17.5H11.2818Z" fill="#F5F0F6"/>
</g>
<defs>
<clipPath id="clip0_16_16">
<rect width="20" height="20" fill="white"/>
</clipPath>
</defs>
</svg>
