<svg width="20" height="20" viewBox="0 0 20 20" fill="none" xmlns="http://www.w3.org/2000/svg">
<g clip-path="url(#clip0_15_8)">
<path d="M8.33333 12.0833C8.33333 12.7733 7.77333 13.3333 7.08333 13.3333C6.39333 13.3333 5.83333 12.7733 5.83333 12.0833C5.83333 11.3933 6.39333 10.8333 7.08333 10.8333C7.77333 10.8333 8.33333 11.3933 8.33333 12.0833ZM7.91666 5.83333C7.22666 5.83333 6.66666 6.39333 6.66666 7.08333C6.66666 7.77333 7.22666 8.33333 7.91666 8.33333C8.60666 8.33333 9.16666 7.77333 9.16666 7.08333C9.16666 6.39333 8.60666 5.83333 7.91666 5.83333ZM12.9167 10C12.2267 10 11.6667 10.56 11.6667 11.25C11.6667 11.94 12.2267 12.5 12.9167 12.5C13.6067 12.5 14.1667 11.94 14.1667 11.25C14.1667 10.56 13.6067 10 12.9167 10ZM13.2867 18.3767C13.345 18.3 13.4392 18.22 13.5342 18.2383C14.8467 18.4283 16.1375 18.0058 17.0708 17.0708C18.0058 16.1375 18.4308 14.8483 18.2383 13.535C18.2242 13.4417 18.3008 13.345 18.3767 13.2867C19.4083 12.4942 20.0008 11.2958 20.0008 10C20.0008 8.70417 19.4092 7.50583 18.3767 6.71333C18.3008 6.655 18.225 6.55917 18.2383 6.46583C18.4308 5.1525 18.0058 3.86333 17.0717 2.92917C16.1375 1.99417 14.8508 1.57083 13.535 1.7625C13.4458 1.77167 13.3458 1.7 13.2875 1.62417C12.495 0.5925 11.2967 0 10.0008 0C8.705 0 7.50666 0.591667 6.71416 1.62333C6.65666 1.69917 6.56167 1.77583 6.46667 1.7625C5.1525 1.57 3.86333 1.995 2.93 2.92917C1.995 3.86333 1.57 5.1525 1.76333 6.46667C1.7775 6.56 1.70083 6.655 1.62416 6.71333C0.592498 7.50667 0.000831604 8.70417 0.000831604 10C0.000831604 11.2958 0.592498 12.4942 1.62416 13.2867C1.7 13.345 1.77666 13.4408 1.76333 13.535C1.57083 14.8475 1.99583 16.1367 2.93 17.0708C3.86416 18.0058 5.15333 18.4283 6.46833 18.2383C6.56166 18.22 6.65666 18.3008 6.715 18.3767C7.50833 19.4083 8.70583 20 10.0017 20C11.2975 20 12.495 19.4083 13.2883 18.3767H13.2867ZM6.1025 15.7642C5.5775 15.8408 5.06667 15.6742 4.69583 15.3025C4.32583 14.9325 4.1575 14.42 4.23416 13.8975C4.3775 12.9233 3.96083 11.93 3.14583 11.3033C2.735 10.9875 2.49916 10.5125 2.49916 9.99917C2.49916 9.48583 2.735 9.01083 3.145 8.69583C3.96083 8.07 4.3775 7.07583 4.23416 6.1025C4.1575 5.57917 4.32583 5.06667 4.69583 4.69667C5.06583 4.32667 5.58 4.15833 6.1025 4.235C7.07416 4.37917 8.07 3.96083 8.69583 3.14583C9.3275 2.32417 10.6725 2.32333 11.3042 3.14583C11.9292 3.96 12.9208 4.3775 13.8975 4.23417C14.4217 4.15667 14.9333 4.325 15.3033 4.69583C15.6733 5.065 15.8417 5.5775 15.7642 6.10167C15.6217 7.07583 16.0392 8.06917 16.8533 8.69417C17.2642 9.01 17.5 9.485 17.5 9.99833C17.5 10.5117 17.2642 10.9867 16.8525 11.3025C16.0383 11.9292 15.6217 12.9225 15.7642 13.8958C15.8408 14.4192 15.6725 14.9308 15.3017 15.3025C14.9333 15.6717 14.4208 15.8408 13.8975 15.7633C12.925 15.6208 11.93 16.0367 11.3033 16.8525C10.6717 17.6742 9.32666 17.6742 8.695 16.8525C8.15083 16.1433 7.3275 15.7358 6.4825 15.7358C6.35583 15.7358 6.22833 15.745 6.10166 15.7633L6.1025 15.7642Z" fill="#F5F0F6"/>
</g>
<defs>
<clipPath id="clip0_15_8">
<rect width="20" height="20" fill="white"/>
</clipPath>
</defs>
</svg>
