<svg width="20" height="20" viewBox="0 0 39 39" fill="none" xmlns="http://www.w3.org/2000/svg">
<g clip-path="url(#clip0_14_6)">
<path d="M35.75 9.17153V4.06253C35.75 2.7154 34.658 1.62503 33.3125 1.62503C31.967 1.62503 30.875 2.7154 30.875 4.06253V5.83215L24.4985 1.52915C21.4614 -0.521599 17.5386 -0.521599 14.5015 1.52915L3.939 8.6564C1.47225 10.3204 0 13.0894 0 16.0648V30.0625C0 34.9912 4.0105 39 8.9375 39H13.8125C15.158 39 16.25 37.9097 16.25 36.5625V23.5625C16.25 23.114 16.6156 22.75 17.0625 22.75H21.9375C22.3844 22.75 22.75 23.114 22.75 23.5625V36.5625C22.75 37.9097 23.842 39 25.1875 39H30.0625C34.9895 39 39 34.9912 39 30.0625V16.0648C39 13.377 37.7991 10.8583 35.75 9.17153ZM34.125 30.0625C34.125 32.3018 32.3034 34.125 30.0625 34.125H27.625V23.5625C27.625 20.4263 25.0737 17.875 21.9375 17.875H17.0625C13.9263 17.875 11.375 20.4263 11.375 23.5625V34.125H8.9375C6.69663 34.125 4.875 32.3018 4.875 30.0625V16.0648C4.875 14.7112 5.5445 13.4534 6.66575 12.6962L17.2283 5.5689C18.6095 4.63778 20.3921 4.63778 21.7734 5.5689L32.3359 12.6978C33.4555 13.4534 34.1266 14.7128 34.1266 16.0648L34.125 30.0625Z" fill="#F5F0F6"/>
</g>
<defs>
<clipPath id="clip0_14_6">
<rect width="39" height="39" fill="white"/>
</clipPath>
</defs>
</svg>

