<svg width="20" height="20" viewBox="0 0 20 20" fill="none" xmlns="http://www.w3.org/2000/svg">
<g clip-path="url(#clip0_16_14)">
<path d="M14.1667 6.37917V5.83333C14.1667 5.39131 13.9911 4.96738 13.6785 4.65482C13.3659 4.34226 12.942 4.16667 12.5 4.16667V2.5H15.4167C15.7482 2.5 16.0661 2.3683 16.3005 2.13388C16.535 1.89946 16.6667 1.58152 16.6667 1.25C16.6667 0.918479 16.535 0.600537 16.3005 0.366117C16.0661 0.131696 15.7482 0 15.4167 0L10.4167 0C9.64312 0 8.90125 0.307291 8.35427 0.854272C7.80729 1.40125 7.5 2.14312 7.5 2.91667V4.16667C7.05797 4.16667 6.63405 4.34226 6.32149 4.65482C6.00893 4.96738 5.83333 5.39131 5.83333 5.83333V6.37917C4.57303 7.05097 3.51937 8.05316 2.78533 9.27826C2.0513 10.5034 1.66459 11.9052 1.66666 13.3333V14.5833C1.66843 16.0194 2.23968 17.3961 3.25512 18.4115C4.27056 19.427 5.64728 19.9982 7.08333 20H12.9167C14.3527 19.9982 15.7294 19.427 16.7449 18.4115C17.7603 17.3961 18.3316 16.0194 18.3333 14.5833V13.3333C18.3354 11.9052 17.9487 10.5034 17.2147 9.27826C16.4806 8.05316 15.427 7.05097 14.1667 6.37917ZM15.8333 14.5833C15.8333 15.3569 15.526 16.0987 14.9791 16.6457C14.4321 17.1927 13.6902 17.5 12.9167 17.5H7.08333C6.30978 17.5 5.56792 17.1927 5.02094 16.6457C4.47396 16.0987 4.16666 15.3569 4.16666 14.5833V13.3333C4.16394 12.2626 4.48006 11.2152 5.07473 10.3248C5.66941 9.43431 6.51572 8.74105 7.50583 8.33333H12.4942C13.4843 8.74105 14.3306 9.43431 14.9253 10.3248C15.5199 11.2152 15.8361 12.2626 15.8333 13.3333V14.5833ZM14.1667 14.1667C14.1667 14.6087 13.9911 15.0326 13.6785 15.3452C13.3659 15.6577 12.942 15.8333 12.5 15.8333H7.5C7.05797 15.8333 6.63405 15.6577 6.32149 15.3452C6.00893 15.0326 5.83333 14.6087 5.83333 14.1667C5.83333 13.7246 6.00893 13.3007 6.32149 12.9882C6.63405 12.6756 7.05797 12.5 7.5 12.5H12.5C12.942 12.5 13.3659 12.6756 13.6785 12.9882C13.9911 13.3007 14.1667 13.7246 14.1667 14.1667Z" fill="#F5F0F6"/>
</g>
<defs>
<clipPath id="clip0_16_14">
<rect width="20" height="20" fill="white"/>
</clipPath>
</defs>
</svg>
