<svg width="16" height="20" viewBox="0 0 16 20" fill="none" xmlns="http://www.w3.org/2000/svg">
<path d="M13.2617 6.29L11.3058 5.12583L11.3325 1.25833C11.335 0.925833 11.2042 0.605 10.9692 0.369167C10.735 0.133333 10.415 0 10.0825 0H5.91584C5.22584 0 4.66584 0.559167 4.66584 1.25V5.10667L2.70918 6.29083C1.34584 7.11583 0.499176 8.61833 0.499176 10.2125V15.4167C0.499176 17.9433 2.55584 20 5.08251 20H10.9158C13.4425 20 15.4992 17.9433 15.4992 15.4167V10.2283C15.4992 8.62167 14.6425 7.1125 13.2617 6.29ZM13 15.4167C13 16.5658 12.0658 17.5 10.9167 17.5H5.08334C3.93418 17.5 3.00001 16.5658 3.00001 15.4167V12.5H10.0833C10.7733 12.5 11.3333 11.94 11.3333 11.25C11.3333 10.56 10.7733 10 10.0833 10H3.02834C3.09584 9.3575 3.44751 8.7675 4.00501 8.43L6.56418 6.88167C6.93834 6.65583 7.16751 6.25 7.16751 5.8125V4.1675H8.81418L8.80251 5.82583C8.79918 6.26917 9.03168 6.68167 9.41251 6.90833L11.9833 8.43833C12.6108 8.8125 13.0008 9.49833 13.0008 10.2283L13 15.4167Z" fill="#F5F0F6"/>
</svg>
