<svg width="30" height="30" viewBox="0 0 30 30" fill="none" xmlns="http://www.w3.org/2000/svg">
<g clip-path="url(#clip0_3_21)">
<path d="M29.15 7.9375C28.3125 6.8625 27.0625 6.25 25.7 6.25H10.6L10.275 3.8C9.9875 1.6375 8.125 0 5.9375 0H5.625C4.5875 0 3.75 0.8375 3.75 1.875C3.75 2.9125 4.5875 3.75 5.625 3.75H5.9375C6.25 3.75 6.5125 3.9875 6.5625 4.2875L8.4875 18.7C8.775 20.8625 10.6375 22.5 12.825 22.5H21.8875C25.05 22.5 27.7875 20.3625 28.5625 17.2875L29.9625 11.675C30.2875 10.3625 30 8.9875 29.1625 7.925L29.15 7.9375ZM26.3125 10.775L24.9125 16.3875C24.5625 17.775 23.3125 18.75 21.875 18.75H12.8125C12.5 18.75 12.2375 18.5125 12.1875 18.2125L11.0875 10H25.6875C25.95 10 26.1125 10.15 26.175 10.2375C26.25 10.325 26.35 10.5125 26.2875 10.775H26.3125ZM0 9.375C0 8.3375 0.8375 7.5 1.875 7.5H3.125C4.1625 7.5 5 8.3375 5 9.375C5 10.4125 4.1625 11.25 3.125 11.25H1.875C0.8375 11.25 0 10.4125 0 9.375ZM6.25 19.375C6.25 20.4125 5.4125 21.25 4.375 21.25H1.875C0.8375 21.25 0 20.4125 0 19.375C0 18.3375 0.8375 17.5 1.875 17.5H4.375C5.4125 17.5 6.25 18.3375 6.25 19.375ZM13.75 27.5C13.75 28.875 12.625 30 11.25 30C9.875 30 8.75 28.875 8.75 27.5C8.75 26.125 9.875 25 11.25 25C12.625 25 13.75 26.125 13.75 27.5ZM25 27.5C25 28.875 23.875 30 22.5 30C21.125 30 20 28.875 20 27.5C20 26.125 21.125 25 22.5 25C23.875 25 25 26.125 25 27.5ZM0 14.375C0 13.3375 0.8375 12.5 1.875 12.5H3.7C4.7375 12.5 5.575 13.3375 5.575 14.375C5.575 15.4125 4.7375 16.25 3.7 16.25H1.875C0.8375 16.25 0 15.4125 0 14.375Z" fill="#F5F0F6"/>
</g>
<defs>
<clipPath id="clip0_3_21">
<rect width="30" height="30" fill="white"/>
</clipPath>
</defs>
</svg>